<?xml version="1.0" encoding="utf-8"?>
<svg xmlns="http://www.w3.org/2000/svg" viewBox="69.039 305.686 348.729 41.2628" width="348.729px" height="41.2628px">
<mask>
<path style="fill: none; stroke: rgb(255, 0, 0); stroke-width: 4px; stroke-miterlimit: 1; stroke-linecap: round;" d="M 69.039 319.187 C 73.274 320.599 79.486 319.565 84.542 319.565 C 85.867 319.565 89.647 319.187 90.403 319.943 C 91.074 320.614 95.77 320.096 96.454 319.754 C 97.949 319.007 101.818 320.819 102.882 319.754 C 104.205 318.431 104.773 318.241 104.773 315.406 C 104.773 315.105 104.964 313.707 104.773 313.515 C 104.042 312.784 103.097 311.651 102.315 310.868 C 101.653 310.206 100.14 310.396 99.479 309.734 C 98.88 309.135 96.674 310.143 96.075 309.545 C 95.697 309.167 94.374 309.734 93.996 309.356 C 93.072 308.432 88.54 308.95 87.946 309.545 C 87.226 310.265 86.841 315.814 87.756 316.729 C 88.683 317.655 87.35 321.049 88.324 322.023 C 89.069 322.768 88.187 324.585 88.702 325.616 C 89.179 326.569 88.891 328.275 88.891 329.397 C 88.891 332.873 89.541 338.012 87.756 339.796 C 86.184 341.368 84.034 337.775 83.786 337.527 C 83.66 337.401 83.66 334.628 83.786 334.502 C 84.84 333.448 85.299 329.905 85.299 328.073 C 85.299 327.281 85.444 321.311 84.164 322.59 C 83.692 323.063 82.746 323.063 82.274 323.536 C 81.715 324.095 83.037 325.087 82.397 325.727 C 80.152 327.972 79.066 332.605 76.98 334.691 C 76.539 335.132 74.38 337.385 73.009 336.014 C 72.603 335.608 71.291 330.169 72.253 329.208 C 72.814 328.647 72.757 327.38 73.387 326.75 C 75.446 324.692 77.324 322.624 79.248 320.7 C 79.846 320.102 81.611 320.606 82.274 319.943 C 82.801 319.416 86.63 318.813 87.756 319.376 C 89.199 320.098 91.615 320.398 92.672 321.456 C 93.113 321.897 94.134 322.828 94.575 323.269 C 96.417 325.11 95.367 328.121 97.21 329.964 C 98.439 331.193 99.573 332.517 100.802 333.745 C 101.369 334.313 101.369 335.447 101.937 336.014 C 102.086 336.164 102.632 338.911 102.315 339.228 C 100.101 341.442 96.989 340.898 94.941 338.85 C 93.965 337.874 94.075 335.716 93.05 334.691 C 92.161 333.801 92.549 331.164 91.727 330.342 C 90.429 329.045 91.546 325.812 90.403 324.67 C 90.088 324.355 90.719 323.095 90.403 322.78 C 90.128 322.504 89.375 317.191 90.025 316.54 C 91.128 315.437 91.191 313.295 92.294 312.192 C 92.889 311.597 93.531 312.861 93.618 312.948 C 94.752 314.082 94.941 316.162 96.075 317.297 C 96.162 317.383 96.535 318.917 96.265 319.187 C 95.742 319.71 94.498 319.249 93.996 318.998 C 92.47 318.235 91.349 316.888 91.349 314.65 C 91.349 314.228 91.08 312.271 91.349 312.003 C 92.228 311.123 93.222 310.507 94.185 309.545 C 94.791 308.939 96.698 309.978 96.832 310.112 C 97.714 310.994 98.407 312.066 99.29 312.948 C 99.636 313.295 99.132 314.492 99.479 314.839 C 100.214 315.574 100.167 316.851 100.991 317.675 C 101.99 318.673 104.365 316.222 104.584 315.784 C 105.347 314.258 106.867 312.73 107.609 311.246 C 107.788 310.888 109.228 309.652 109.688 310.112 C 110.321 310.744 111.312 311.358 111.957 312.003 C 112.902 312.948 111.39 316.351 112.335 317.297 C 112.966 317.927 112.272 319.88 112.903 320.511 C 113.504 321.113 113.281 323.149 113.281 324.292 C 113.281 326.788 112.668 330.267 112.668 333.067 C 112.668 334.256 113.963 337.601 113.281 338.283 C 113.202 338.362 112.903 339.796 112.903 339.796 C 112.903 339.796 112.261 341.083 112.355 340.988 C 112.566 340.777 112.623 337.369 112.623 337.038 C 112.623 335.239 112.857 332.827 112.857 330.832 C 112.857 330.094 112.795 329.113 112.401 328.719 C 111.834 328.151 113.392 326.261 112.825 325.693 C 112.62 325.489 112.422 321.18 112.713 320.889 C 113.272 320.33 115.363 321.081 115.739 321.456 C 116.979 322.696 118.379 323.529 119.709 324.859 C 121.039 326.189 124.33 325.131 125.57 326.372 C 125.828 326.63 128.34 329.352 128.661 329.031 C 130.046 327.646 131.063 323.337 132.566 321.834 C 133.023 321.377 132.733 320.154 133.133 319.754 C 133.954 318.933 132.971 316.135 133.7 315.406 C 133.889 315.217 135.803 312.971 136.725 313.893 C 138.947 316.115 138.678 322.907 136.347 325.237 C 135.944 325.64 136.347 328.575 136.347 329.208 C 136.347 330.351 135.531 333.427 134.834 334.124 C 133.885 335.073 129.645 336.686 131.62 338.661 C 131.752 338.793 134.536 339.905 135.023 339.417 C 136.181 338.26 135.065 334.987 135.78 333.556 C 136.652 331.812 135.665 329.437 136.536 327.695 C 138.446 323.875 137.132 317.835 139.75 315.217 C 140.573 314.394 140.972 313.617 141.641 312.948 C 142.05 312.538 143.311 312.979 143.721 312.57 C 143.764 312.526 145.237 311.817 145.422 312.003 C 146.2 312.781 145.989 316.625 145.989 318.053 C 145.989 322.061 145.233 325.95 145.233 330.153 C 145.233 331.861 144.908 334.744 145.8 335.636 C 146.761 336.597 148.843 334.295 149.015 334.124 C 149.739 333.399 151.315 333.525 152.04 332.8 C 153.277 331.563 154.73 330.299 156.01 329.019 C 156.609 328.42 156.546 327.16 157.144 326.561 C 157.523 326.183 156.766 324.67 157.144 324.292 C 157.554 323.882 156.924 322.433 157.334 322.023 C 157.869 321.488 157.932 320.479 158.468 319.943 C 158.678 319.733 158.844 316.916 159.791 317.864 C 160.34 318.413 155.9 319.108 155.632 319.376 C 154.598 320.41 151.433 319.416 150.338 320.511 C 149.96 320.889 148.636 320.322 148.258 320.7 C 147.46 321.498 147.256 321.173 146.935 322.78 C 146.896 322.975 146.983 322.353 147.124 322.212 C 147.439 321.897 147.754 321.582 148.069 321.267 C 148.989 320.347 151.032 320.762 152.04 319.754 C 153.8 317.995 158.365 316.816 160.359 318.809 C 160.748 319.198 162.088 319.026 162.438 319.376 C 163.289 320.227 166.503 318.715 167.354 319.565 C 168.111 320.323 171.223 319.308 172.048 320.133 C 172.835 320.92 173.562 319.899 174.35 320.687 C 177.734 324.072 175.053 333.988 172.837 336.203 C 172.766 336.274 171.206 336.274 171.135 336.203 C 169.936 335.004 168.489 335.128 168.489 332.8 C 168.489 332.529 168.316 331.271 168.489 331.099 C 169.538 330.049 168.654 327.34 169.623 326.372 C 170.089 325.906 169.77 324.523 170.19 324.103 C 171.759 322.534 171.514 317.071 171.514 314.65 C 171.514 313.629 171.707 311.062 171.135 310.49 C 170.197 309.551 169.255 308.421 168.299 307.465 C 167.279 306.444 166.598 310.485 166.598 311.057 C 166.598 314.501 166.976 317.818 166.976 321.078 C 166.976 322.04 166.328 323.137 165.907 323.979 C 165.361 325.07 165.897 326.937 165.151 327.683 C 163.049 329.785 162.814 334.571 160.77 336.615 C 160.332 337.053 158.279 339.69 158.279 339.985 C 157.838 340.425 157.997 342.728 158.279 343.01 C 158.878 343.608 158.815 344.869 159.413 345.468 C 160.902 346.956 163.989 345.581 166.031 346.602 C 166.408 346.791 169.255 347.16 169.623 346.791 C 170.459 345.955 172.302 346.192 173.215 345.279 C 174.81 343.684 176.877 341.926 178.131 339.417 C 178.862 337.955 179.409 331.81 178.131 330.531 C 177.438 329.838 178.257 327.632 177.564 326.939 C 176.584 325.959 178.005 322.276 176.997 321.267 C 175.969 320.24 175.203 316.254 176.24 315.217 C 177.485 313.972 178.685 316.149 179.076 316.54 C 179.644 317.107 180.601 319.154 181.169 319.721 C 182.798 321.351 182.917 323.126 184.605 324.814 C 184.856 325.064 185.679 328.656 185.883 328.452 C 186.39 327.944 185.942 326.69 186.45 326.183 C 188.234 324.399 187.006 320.144 188.719 318.431 C 189.656 317.493 193.981 313.294 196.471 315.784 C 196.849 316.162 197.983 315.784 198.361 316.162 C 199.149 316.95 201.544 316.131 202.332 316.918 C 203.347 317.934 206.381 317.186 207.437 318.242 C 210.938 321.743 203.067 322.38 201.386 320.7 C 200.788 320.101 198.771 320.92 198.172 320.322 C 197.258 319.408 195.305 319.534 194.391 318.62 C 194.281 318.51 193.207 317.157 193.067 317.297 C 192.563 317.801 193.382 319.628 192.878 320.133 C 192.264 320.747 191.555 324.176 191.555 325.237 C 191.555 325.705 191.177 328.452 191.177 328.452 C 191.177 328.452 193.11 327.476 193.223 327.363 C 194.492 326.094 196.09 325.522 197.794 324.67 C 198.073 324.531 198.906 324.882 199.118 324.67 C 199.878 323.91 206.111 323.912 206.869 324.67 C 207.728 325.529 209.039 326.181 209.94 327.082 C 210.748 327.89 209.738 332.389 209.216 332.911 C 207.374 334.753 204.559 334.239 201.764 335.636 C 200.843 336.097 198.667 335.142 197.983 335.825 C 196.967 336.842 194.663 336.475 194.013 335.825 C 193.548 335.36 195.109 333.405 195.336 333.178 C 198 330.515 200.219 328.484 203.277 325.426 C 205.747 322.956 209.524 322.205 211.785 319.943 C 212.021 319.708 215.401 319.967 215.566 320.133 C 215.999 320.565 217.794 320.322 218.592 320.322 C 221.083 320.322 225.105 320.562 227.1 319.565 C 227.781 319.225 229.535 319.565 230.314 319.565 C 233.057 319.565 235.611 319.187 238.066 319.187 C 238.698 319.187 241.633 319.59 242.036 319.187 C 243.494 317.729 246.887 313.072 244.116 310.301 C 243.01 309.195 240.648 307.087 238.633 307.087 C 236.913 307.087 232.305 304.717 230.881 306.142 C 226.496 310.526 228.234 322.127 228.234 329.775 C 228.234 332.016 229.126 338.337 228.045 339.417 C 227.496 339.966 225.983 337.185 225.776 336.771 C 224.384 333.987 226.82 327.227 224.642 325.048 C 224.367 324.773 224.443 319.954 222.373 322.023 C 221.274 323.122 221.881 324.52 221.049 326.183 C 220.789 326.703 221.24 327.694 220.86 328.073 C 219.245 329.688 219.473 331.612 217.86 333.224 C 217.445 333.639 215.638 336.356 215.279 335.636 C 213.4 331.879 213.423 324.544 215.756 322.212 C 216.678 321.289 216.675 319.592 217.457 318.809 C 217.925 318.341 219.66 313.638 221.238 315.217 C 222.603 316.581 225.804 316.271 227.856 317.297 C 228.435 317.586 230.062 317.423 230.503 317.864 C 231.354 318.715 232.488 319.282 233.339 320.133 C 234.065 320.859 233.835 322.141 234.473 322.78 C 235.387 323.693 235.072 325.836 235.986 326.75 C 236.853 327.618 237.97 330.529 238.444 331.477 C 239.095 332.779 240.873 333.731 241.658 334.124 C 241.895 334.242 242.759 335.103 243.17 334.691 C 243.554 334.307 243.85 333.822 244.305 333.367 C 245.38 332.292 245.25 328.73 245.25 326.75 C 245.25 323.313 244.849 319.519 243.549 316.918 C 242.46 314.741 243.136 312.157 241.658 310.679 C 240.902 309.923 239.578 309.734 238.822 308.978 C 237.065 307.221 232.449 310.545 234.473 312.57 C 235.639 313.736 235.198 316.509 236.364 317.675 C 236.435 317.745 236.738 319.002 236.553 319.187 C 236.048 319.692 234.598 319.312 234.284 318.998 C 232.582 317.296 232.093 317.263 230.881 314.839 C 230.689 314.455 230.095 312.032 230.503 311.625 C 231.039 311.089 231.48 310.459 232.015 309.923 C 232.294 309.644 233.296 309.966 233.528 309.734 C 235.368 307.894 238.286 311.467 238.822 312.003 C 239.864 313.045 239.904 315.113 240.523 316.351 C 240.874 317.053 241.632 318.62 241.28 318.62 C 240.907 317.975 242.897 318.444 243.887 318.444 C 244.805 318.444 246.806 317.345 247.266 316.885 C 248.636 315.515 249.634 313.477 250.905 312.206 C 251.002 312.109 252.655 311.617 252.984 311.946 C 256.226 315.188 252.984 324.227 252.984 329.36 C 252.984 330.733 253.613 335.489 252.724 336.378 C 251.81 337.293 251.414 332.209 251.165 331.96 C 248.94 329.735 251.873 321.635 252.724 320.783 C 253.692 319.815 257.283 322.224 257.663 322.603 C 258.405 323.345 260.09 322.951 261.041 323.902 C 263.104 325.965 268.458 330.261 271.438 327.281 C 273.814 324.905 272.021 317.342 274.557 314.805 C 274.846 314.516 275.666 311.236 276.636 312.206 C 278.301 313.871 279.698 321.36 277.416 323.642 C 276.471 324.587 277.217 326.96 276.376 327.801 C 275.467 328.711 275.986 331.05 275.077 331.96 C 274.401 332.635 274.269 334.067 273.517 334.819 C 273.376 334.959 271.811 336.491 271.958 336.638 C 273.594 338.275 276.965 333.19 277.416 332.739 C 277.684 332.471 277.408 331.188 277.676 330.92 C 279.417 329.178 278.533 324.344 280.275 322.603 C 280.881 321.996 280.188 320.09 280.795 319.484 C 281.834 318.444 280.275 314.805 281.315 313.766 C 282.871 312.21 283.868 312.619 286.253 311.427 C 287.866 310.62 287.428 317.009 286.773 317.664 C 284.953 319.484 287.033 325.202 285.213 327.021 C 284.78 327.454 285.386 328.927 284.953 329.36 C 284.791 329.523 284.791 333.097 284.953 333.259 C 285.386 333.692 285.381 335.731 285.814 336.164 C 287.117 337.467 290.973 332.957 291.191 332.739 C 294.848 329.083 297.169 328.102 297.169 321.043 C 297.169 319.137 297.169 317.231 297.169 315.325 C 297.169 315.175 297.169 313.506 297.169 313.506 C 297.169 313.506 300.864 316.421 301.068 316.625 C 301.667 317.224 303.762 316.46 304.447 317.145 C 305.356 318.054 308.475 316.755 309.385 317.664 C 309.901 318.18 311.792 317.924 312.764 317.924 C 315.812 317.924 320.534 318.212 322.121 316.625 C 324.833 313.913 319.63 311.275 319.002 310.647 C 318.883 310.528 316.262 310.528 316.143 310.647 C 315.406 311.383 311.882 310.668 311.146 311.404 C 309.571 312.979 310.949 316.62 309.385 318.184 C 308.028 319.541 306.234 321.368 305.486 322.863 C 305.194 323.447 301.446 326.88 301.848 327.281 C 302.451 327.885 303.583 326.845 304.187 326.242 C 305.465 324.964 308.979 323.383 310.944 323.383 C 311.441 323.383 313.747 323.066 314.063 323.383 C 315.883 325.202 314.064 330.66 315.883 332.479 C 316.151 332.747 319.925 333.115 320.301 332.739 C 322.276 330.765 323.454 328.287 325.24 326.501 C 325.688 326.053 325.196 321.78 324.98 321.563 C 324.239 320.822 321.517 321.387 320.821 322.083 C 317.567 325.338 312.062 325.644 309.125 328.581 C 308.909 328.797 305.567 331.852 307.879 335.097 C 309.719 337.679 314.895 335.598 319.522 335.598 C 320.184 335.598 323.258 336.02 323.68 335.598 C 324.426 334.852 324.656 333.583 325.5 332.739 C 325.95 332.289 325.362 330.538 325.759 330.14 C 327.536 328.364 325.283 322.559 327.059 320.783 C 329.196 318.647 337.912 317.628 341.621 317.628 C 343.263 317.628 345.699 317.027 346.552 317.881 C 347.159 318.487 349.065 319.397 349.671 320.004 C 353.151 323.483 352.518 327.056 350.257 329.317 C 349.423 330.151 345.109 332.104 344.213 332.999 C 343.174 334.039 340.574 333.519 339.535 334.559 C 338.32 335.773 334.762 334.393 333.557 335.598 C 332.397 336.758 330.019 340.638 332.257 342.876 C 334.179 344.797 337.594 345.995 341.614 345.995 C 346.241 345.995 354.832 347.072 357.729 344.175 C 358.698 343.207 358.109 340.156 359.028 339.237 C 359.871 338.394 360.358 333.58 359.548 331.96 C 359.079 331.021 360.043 327.517 359.288 326.761 C 357.916 325.389 359.112 319.576 359.808 318.184 C 360.986 315.828 362.687 314.786 364.226 313.246 C 365.226 312.247 367.753 313.098 368.645 312.206 C 368.822 312.029 371.795 311.198 372.024 311.427 C 373.188 312.591 374.526 315.942 372.804 317.664 C 370.757 319.711 366.893 318.942 364.819 321.016 C 364.256 321.58 363.696 323.312 363.133 323.875 C 360.316 326.692 368.591 330.606 370.204 332.22 C 370.926 332.941 372.198 332.654 372.804 333.259 C 373.33 333.786 375.036 336.118 375.923 336.118 C 377.988 336.635 379.598 334.225 380.601 332.22 C 381.409 330.604 384.946 325.649 382.68 323.383 C 382.247 322.949 382.854 321.477 382.42 321.043 C 382.15 320.773 381.346 315.62 381.9 315.065 C 384.094 312.872 389.107 316.105 392.557 316.105 C 394.983 316.105 397.409 316.105 399.834 316.105 C 400.207 316.105 403.54 316.135 403.777 316.372 C 403.898 316.493 398.024 319.215 397.495 319.744 C 395.003 322.236 390.924 322.936 388.398 325.462 C 388.182 325.678 386.839 329.101 386.839 329.101 C 386.839 329.101 389.891 326.925 390.737 326.501 C 393.513 325.114 395.862 324.942 399.315 324.942 C 400.286 324.942 402.177 324.686 402.693 325.202 C 403.3 325.808 405.206 325.115 405.812 325.722 C 406.879 326.789 407.499 330.533 406.072 331.96 C 403.738 334.295 393.831 339.471 389.438 335.079 C 389.099 334.739 389.563 333.269 389.698 332.999 C 390.238 331.919 392.881 329.652 394.896 330.66 C 398.305 332.364 401.256 336.5 403.733 338.977 C 404.345 339.589 407.04 339.237 408.152 339.237 C 413.367 339.237 417.768 334.105 417.768 329.88" id="object-0"/>
</mask>
</svg>